<?xml version="1.0" encoding="utf-8"?>
<!-- Generator: Adobe Illustrator 26.1.0, SVG Export Plug-In . SVG Version: 6.00 Build 0)  -->
<svg version="1.1" id="Layer_1" xmlns="http://www.w3.org/2000/svg" xmlns:xlink="http://www.w3.org/1999/xlink" x="0px" y="0px"
	 viewBox="0 0 1920 1080" style="enable-background:new 0 0 1920 1080;" xml:space="preserve">
<style type="text/css">
	.st0{fill:url(#SVGID_1_);}
	.st1{fill:url(#SVGID_00000040546505441659579540000000462800640951888810_);}
	.st2{opacity:0.3;fill:#121214;enable-background:new    ;}
	.st3{fill:#DAE6EA;}
	.st4{fill:#C3D4D8;}
	.st5{fill:#026A9D;}
	.st6{fill:#F5FBFB;}
	.st7{fill:#28B3EA;}
	.st8{fill:none;stroke:#BCBDBE;stroke-width:1.96;stroke-miterlimit:10;}
	.st9{fill:none;}
	.st10{fill:#32526E;}
	.st11{fill:#39B9F8;}
	.st12{opacity:0.3;enable-background:new    ;}
	.st13{fill:#303033;}
	.st14{fill:#FFF6BF;}
	.st15{fill:#F57319;}
	.st16{fill:#FF9D26;}
	.st17{fill:#A7A9AC;}
	.st18{fill:#BCBEC0;}
	.st19{fill:#939598;}
	.st20{fill:#D62821;}
	.st21{fill:#92201A;}
	.st22{opacity:0.3;}
	.st23{fill:#FFE590;}
	.st24{fill:#F9960D;}
	.st25{fill:#FFC654;}
	.st26{fill:#BA6000;}
	.st27{fill:#BCBDBE;}
	.st28{fill:#383838;}
	.st29{fill:#517FA2;}
	.st30{fill:#F86F6B;}
	.st31{fill:#FFFFFF;}
	.st32{fill:#3A3A3A;}
	.st33{fill:#3F3F3F;}
</style>
<g id="Rounding">
	
		<radialGradient id="SVGID_1_" cx="960" cy="540" r="1284.5601" gradientTransform="matrix(1 0 0 -1 0 1080)" gradientUnits="userSpaceOnUse">
		<stop  offset="0" style="stop-color:#FFCF4D"/>
		<stop  offset="0.25" style="stop-color:#FFCB49"/>
		<stop  offset="0.5" style="stop-color:#FDC13D"/>
		<stop  offset="0.75" style="stop-color:#FCAF29"/>
		<stop  offset="1" style="stop-color:#F9960D"/>
	</radialGradient>
	<rect class="st0" width="1920" height="1080"/>
	
		<linearGradient id="SVGID_00000021104105240167734360000009907840605549835908_" gradientUnits="userSpaceOnUse" x1="2018.3694" y1="1021.9014" x2="-1560.1808" y2="-712.2181" gradientTransform="matrix(1 0 0 -1 0 1080)">
		<stop  offset="0" style="stop-color:#F9960D"/>
		<stop  offset="0.34" style="stop-color:#F08F0C"/>
		<stop  offset="0.89" style="stop-color:#D97C0A"/>
		<stop  offset="1" style="stop-color:#D37809"/>
	</linearGradient>
	<polygon style="fill:url(#SVGID_00000021104105240167734360000009907840605549835908_);" points="1468.5,135.8 1377.5,187.8 
		1090.1,102.6 917.7,212.6 526.3,384.5 447.2,432.8 178.6,482 0,582.7 0,1080 873.2,1080.7 1180.9,903 1141.5,880.2 1673.7,574 
		1728.1,524 1662,543.1 1611.8,513.4 1737.5,440.9 1544.4,329.5 1401.8,411 1322.8,365.6 1460.5,286.5 1435,265.2 1561.7,191.2 	"/>
	<polygon class="st2" points="547.5,505.7 342.5,387.9 178.6,482 366.8,608.5 	"/>
	<path class="st2" d="M522.4,406.6l590.5,340.9c6.6,3.8,17.2,3.8,23.8,0l422.9-244.2c6.6-3.8,6.6-10,0-13.8L969.1,148.6
		c-6.6-3.8-17.2-3.8-23.8,0L522.4,392.8C515.8,396.6,515.8,402.8,522.4,406.6z"/>
	<path class="st3" d="M533.8,387.5v-29.1l414.9-210.5c7.4-4.3,19.5-4.3,26.9,0l558.3,297.8c0,0,0,26.3,0,29.1s-1.9,5.6-5.6,7.8
		l-414.9,239.6L533.8,387.5z"/>
	<path class="st4" d="M1533.9,474.8c0-2.8,0-29.1,0-29.1L1433.3,392h-319.9v330.1l414.9-239.6
		C1532.1,480.4,1533.9,477.6,1533.9,474.8z"/>
	<path class="st5" d="M1534.2,442.3c7.4-4.3,7.4-11.2,0-15.5l-17.7-10.2l-428.4,247.3l31.1,17.9L1534.2,442.3z"/>
	<path class="st3" d="M533.8,343.8v-29.1l414.9-210.5c7.4-4.3,19.5-4.3,26.9,0L1533.9,402c0,0,0,26.3,0,29.1s-1.9,5.6-5.6,7.8
		l-414.9,239.6L533.8,343.8z"/>
	<path class="st4" d="M1533.9,431.1c0-2.8,0-29.1,0-29.1l-100.6-53.7h-319.9v330.1l414.9-239.6
		C1532.1,436.7,1533.9,433.9,1533.9,431.1z"/>
	<path class="st6" d="M533.8,314.8L948.8,75.2c7.4-4.3,19.5-4.3,26.9,0l552.7,319.1c7.4,4.3,7.4,11.2,0,15.5l-414.9,239.6
		L533.8,314.8z"/>
	<path class="st5" d="M586.3,314.6c7-4,18.2-4,25.2,0s7,10.5,0,14.5s-18.2,4-25.2,0S579.3,318.6,586.3,314.6z"/>
	<path class="st5" d="M649.3,351c7-4,18.2-4,25.2,0s7,10.5,0,14.5s-18.2,4-25.2,0S642.3,355,649.3,351z"/>
	<path class="st5" d="M712.3,387.4c7-4,18.2-4,25.2,0s7,10.5,0,14.5s-18.2,4-25.2,0S705.3,391.4,712.3,387.4z"/>
	<path class="st5" d="M775.3,423.8c7-4,18.2-4,25.2,0s7,10.5,0,14.5s-18.2,4-25.2,0S768.3,427.8,775.3,423.8z"/>
	<path class="st5" d="M838.3,460.1c7-4,18.2-4,25.2,0s7,10.5,0,14.5s-18.2,4-25.2,0S831.3,464.1,838.3,460.1z"/>
	<path class="st5" d="M901.3,496.5c7-4,18.2-4,25.2,0s7,10.5,0,14.5c-7,4-18.2,4-25.2,0S894.3,500.5,901.3,496.5z"/>
	<path class="st5" d="M964.3,532.9c7-4,18.2-4,25.2,0s7,10.5,0,14.5s-18.2,4-25.2,0S957.3,536.9,964.3,532.9z"/>
	<path class="st5" d="M1027.3,569.2c7-4,18.2-4,25.2,0s7,10.5,0,14.5s-18.2,4-25.2,0S1020.3,573.2,1027.3,569.2z"/>
	<path class="st5" d="M1090.3,605.6c7-4,18.2-4,25.2,0s7,10.5,0,14.5s-18.2,4-25.2,0S1083.3,609.6,1090.3,605.6z"/>
	<polygon class="st5" points="527.9,340.5 1119.3,681.8 1119.3,696.4 527.9,355 	"/>
	<path class="st7" d="M1534.4,456.6c3.2-2.1,5.2-5.5,5.4-9.3v-12.8c0,3.1-2.1,5.6-5.6,7.8l-414.9,239.6v14.5L1534.4,456.6z"/>
	<polygon class="st5" points="533.8,343.9 533.8,337.1 527.9,340.5 	"/>
	<path class="st8" d="M643.3,293.9l306.1-176.7c5.9-3.4,15.6-3.4,21.5,0l28.9,16.7c5.9,3.4,5.9,9,0,12.4L693.7,323
		c-5.9,3.4-15.6,3.4-21.5,0l-28.9-16.7C637.4,302.9,637.4,297.4,643.3,293.9z"/>
	<line class="st8" x1="657.8" y1="314.7" x2="985.4" y2="125.5"/>
	<path class="st8" d="M718.9,350l407.1,235c5.9,3.4,15.6,3.4,21.5,0l305.9-176.8c5.9-3.4,5.9-9,0-12.4l-406.9-234.9
		c-5.9-3.4-15.6-3.4-21.5,0L718.9,337.6C713,341,713,346.5,718.9,350z"/>
	<line class="st8" x1="733.3" y1="358.3" x2="1061" y2="169.2"/>
	<line class="st8" x1="758.6" y1="372.9" x2="1086.2" y2="183.7"/>
	<line class="st8" x1="783.8" y1="387.4" x2="1111.4" y2="198.3"/>
	<line class="st8" x1="809.1" y1="402" x2="1136.7" y2="212.8"/>
	<line class="st8" x1="834.3" y1="416.5" x2="1161.9" y2="227.4"/>
	<line class="st8" x1="859.5" y1="431.1" x2="1187.2" y2="241.9"/>
	<line class="st8" x1="884.8" y1="445.6" x2="1212.4" y2="256.5"/>
	<line class="st8" x1="910" y1="460.1" x2="1237.7" y2="271"/>
	<line class="st8" x1="935.3" y1="474.7" x2="1262.9" y2="285.5"/>
	<line class="st8" x1="960.5" y1="489.2" x2="1288.2" y2="300.1"/>
	<line class="st8" x1="985.8" y1="503.8" x2="1313.4" y2="314.6"/>
	<line class="st8" x1="1036.2" y1="532.9" x2="1363.9" y2="343.7"/>
	<line class="st8" x1="1061.5" y1="547.4" x2="1389.1" y2="358.3"/>
	<line class="st8" x1="1086.7" y1="562" x2="1414.4" y2="372.8"/>
	<line class="st8" x1="1112" y1="576.5" x2="1439.6" y2="387.4"/>
	<line class="st8" x1="1011" y1="518.3" x2="1338.6" y2="329.2"/>
	<path class="st9" d="M1049.8,693c3.5,2,8.1,2,13.4,0.2l-20.2-11.7C1044,686.9,1046.3,690.9,1049.8,693z"/>
	<path class="st10" d="M1049.8,693c-3.5-2-5.8-6-6.8-11.5c-0.4-2.1-0.5-4.2-0.5-6.3c0.2-7.1,1.6-14.1,4.2-20.7
		c1.5-3.9,3.3-7.7,5.4-11.4l-10.8-6.3c-2.1,3.7-3.9,7.4-5.5,11.3c-3.4,8.2-5.4,17-5.7,25.8c0,0.4,0,0.8,0,1.2
		c0,13.3,4.8,23.5,13.6,28.5c3.8,2.2,8.1,3.3,12.4,3.2c6,0,12.5-1.9,19.1-5.7c0.3-0.2,0.7-0.4,1-0.6l-12.9-7.5
		C1058,695,1053.3,695,1049.8,693z"/>
	<path class="st10" d="M1100.4,605.4c-1.4-0.8-3-1.5-4.5-2c-7.9-2.6-17.3-1.1-26.9,4.5c-4.3,2.5-8.3,5.5-11.9,8.9
		c-6.2,5.9-11.5,12.6-15.7,20l10.8,6.3c4.2-7.5,9.7-14.1,16.2-19.7c2.1-1.8,4.3-3.3,6.7-4.7c3.2-1.9,6.6-3.2,10.3-3.8
		c6.2-1.4,12.4,2.2,14.3,8.2c4.2,0.5,8.5,0,12.6-1.4C1110.2,614.3,1106.2,608.7,1100.4,605.4z"/>
	<path class="st10" d="M1052.1,643.1l-10.8-6.3l0,0L1052.1,643.1L1052.1,643.1z"/>
	<path class="st9" d="M986.8,656.5c3.5,2,8.2,2,13.4,0.2L980,645C981,650.5,983.3,654.5,986.8,656.5z"/>
	<path class="st10" d="M986.8,656.6c-3.5-2-5.8-6-6.8-11.5c-0.4-2.1-0.6-4.2-0.5-6.3c0.2-7.1,1.6-14.1,4.2-20.7
		c1.5-3.9,3.3-7.7,5.4-11.4l-10.8-6.2c-2.1,3.6-3.9,7.4-5.5,11.3c-3.4,8.2-5.4,17-5.7,25.8c0,0.4,0,0.8,0,1.2
		c0,13.3,4.8,23.5,13.6,28.5c3.8,2.2,8.1,3.3,12.4,3.2c6,0,12.5-1.9,19.1-5.7c0.3-0.2,0.7-0.4,1-0.6l-12.9-7.4
		C995,658.7,990.4,658.7,986.8,656.6z"/>
	<path class="st10" d="M1037.4,569c-1.4-0.8-3-1.5-4.5-2c-7.9-2.6-17.3-1.1-27,4.5c-4.3,2.5-8.3,5.5-11.9,9
		c-6.2,5.9-11.5,12.6-15.7,20l10.8,6.3c4.2-7.5,9.7-14.1,16.2-19.7c2.1-1.8,4.3-3.3,6.7-4.7c3.2-1.9,6.6-3.2,10.3-3.8
		c6.2-1.4,12.4,2.2,14.3,8.2c4.2,0.5,8.5,0,12.6-1.4C1047.2,578,1043.2,572.4,1037.4,569z"/>
	<path class="st10" d="M989.2,606.6l-10.8-6.2l0,0L989.2,606.6L989.2,606.6z"/>
	<path class="st9" d="M923.9,620c3.5,2,8.2,2,13.4,0.2L917,608.5C918,614,920.4,618,923.9,620z"/>
	<path class="st10" d="M923.9,620.3c-3.5-2-5.8-6-6.8-11.5c-0.4-2.1-0.5-4.2-0.5-6.3c0.2-7.1,1.6-14.1,4.2-20.7
		c1.5-3.9,3.3-7.7,5.4-11.4l-10.8-6.3c-2.1,3.7-3.9,7.4-5.5,11.3c-3.4,8.2-5.4,16.9-5.7,25.8c0,0.4,0,0.8,0,1.2
		c0,13.3,4.8,23.5,13.6,28.5c3.8,2.2,8.1,3.3,12.4,3.2c6,0,12.5-1.9,19.1-5.7c0.3-0.2,0.7-0.4,1-0.6l-12.9-7.5
		C932,622.3,927.4,622.3,923.9,620.3z"/>
	<path class="st10" d="M974.4,532.7c-1.4-0.8-3-1.5-4.5-2c-7.9-2.6-17.3-1.1-26.9,4.5c-4.3,2.5-8.3,5.5-11.9,8.9
		c-6.2,5.9-11.5,12.6-15.7,20l10.8,6.3c4.2-7.5,9.7-14.1,16.2-19.7c2.1-1.8,4.4-3.3,6.7-4.7c3.2-1.9,6.6-3.2,10.3-3.8
		c6.2-1.4,12.4,2.2,14.3,8.2c4.2,0.5,8.5,0,12.6-1.4C984.2,541.6,980.2,536,974.4,532.7z"/>
	<path class="st10" d="M926.2,570.2l-10.8-6.2l0,0L926.2,570.2L926.2,570.2z"/>
	<path class="st9" d="M860.9,583.6c3.5,2,8.2,2,13.4,0.2l-20.2-11.7C855.1,577.6,857.4,581.6,860.9,583.6z"/>
	<path class="st10" d="M860.9,583.9c-3.5-2-5.8-6-6.8-11.5c-0.4-2.1-0.5-4.2-0.5-6.3c0.2-7.1,1.6-14.1,4.2-20.7
		c1.5-3.9,3.3-7.7,5.4-11.4l-10.8-6.3c-2.1,3.7-3.9,7.4-5.5,11.3c-3.4,8.2-5.4,17-5.7,25.8c0,0.4,0,0.8,0,1.2
		c0,13.3,4.8,23.5,13.6,28.5c3.8,2.2,8.1,3.3,12.4,3.2c6,0,12.5-1.9,19.1-5.7c0.3-0.2,0.7-0.4,1-0.6l-12.9-7.5
		C869.1,586,864.4,586,860.9,583.9z"/>
	<path class="st10" d="M911.4,496.3c-1.4-0.8-3-1.5-4.5-2c-7.9-2.6-17.3-1.1-26.9,4.5c-4.3,2.5-8.3,5.5-11.9,9
		c-6.2,5.9-11.5,12.6-15.7,20l10.9,6.3c4.2-7.5,9.7-14.1,16.2-19.7c2.1-1.8,4.3-3.3,6.7-4.7c3.2-1.9,6.6-3.2,10.3-3.8
		c3-0.6,6.1-0.1,8.8,1.3c2.6,1.6,4.5,4,5.5,6.8c4.2,0.5,8.5,0,12.6-1.4C921.2,505.2,917.2,499.6,911.4,496.3z"/>
	<path class="st10" d="M863.2,533.7l-10.8-6.3l0,0L863.2,533.7z"/>
	<path class="st9" d="M797.9,547.1c3.5,2,8.2,2,13.4,0.2l-20.2-11.7C792.1,541.1,794.4,545.1,797.9,547.1z"/>
	<path class="st10" d="M798,547.6c-3.5-2-5.8-6-6.8-11.5c-0.4-2.1-0.5-4.2-0.5-6.3c0.2-7.1,1.6-14.1,4.2-20.7
		c1.5-3.9,3.3-7.7,5.4-11.4l-10.8-6.3c-2.1,3.7-3.9,7.4-5.5,11.4c-3.4,8.2-5.4,17-5.7,25.8c0,0.4,0,0.8,0,1.2
		c0,13.3,4.8,23.5,13.6,28.5c3.8,2.2,8.1,3.3,12.4,3.2c6,0,12.5-1.9,19.1-5.7c0.3-0.2,0.7-0.4,1-0.6l-12.9-7.5
		C806.1,549.6,801.5,549.6,798,547.6z"/>
	<path class="st10" d="M848.4,459.9c-1.4-0.8-3-1.5-4.5-2c-7.9-2.6-17.3-1.1-26.9,4.5c-4.3,2.5-8.3,5.5-11.9,8.9
		c-6.2,5.9-11.5,12.6-15.7,20l10.8,6.3c4.2-7.5,9.7-14.1,16.2-19.7c2.1-1.8,4.3-3.3,6.7-4.7c3.2-1.9,6.6-3.2,10.3-3.8
		c6.2-1.4,12.4,2.1,14.3,8.2c4.2,0.5,8.5,0,12.6-1.4C858.2,468.9,854.2,463.3,848.4,459.9z"/>
	<path class="st10" d="M800.3,497.3l-10.8-6.3l0,0L800.3,497.3z"/>
	<path class="st9" d="M735,510.7c3.5,2,8.2,2,13.4,0.2l-20.2-11.6C729.1,504.7,731.5,508.7,735,510.7z"/>
	<path class="st10" d="M735,511.3c-3.5-2-5.8-6-6.8-11.5c-0.4-2.1-0.5-4.2-0.5-6.3c0.2-7.1,1.6-14.1,4.2-20.7
		c1.5-3.9,3.3-7.7,5.4-11.4l-10.8-6.2c-2.1,3.6-3.9,7.4-5.5,11.3c-3.4,8.2-5.4,17-5.7,25.8c0,0.4,0,0.8,0,1.2
		c0,13.3,4.8,23.5,13.6,28.5c3.8,2.2,8.1,3.3,12.4,3.2c6,0,12.5-1.9,19.1-5.7c0.3-0.2,0.7-0.4,1-0.6l-12.9-7.5
		C743.1,513.3,738.5,513.3,735,511.3z"/>
	<path class="st10" d="M785.4,423.5c-1.4-0.8-3-1.5-4.5-2c-7.9-2.6-17.3-1.1-26.9,4.5c-4.3,2.5-8.3,5.5-11.9,9
		c-6.2,5.9-11.5,12.6-15.7,20l10.8,6.2c4.2-7.5,9.7-14.1,16.2-19.7c2.1-1.8,4.3-3.3,6.7-4.7c3.2-1.9,6.6-3.2,10.3-3.8
		c6.2-1.4,12.4,2.2,14.3,8.2c4.2,0.5,8.5,0,12.6-1.4C795.2,432.5,791.2,426.9,785.4,423.5z"/>
	<path class="st10" d="M737.3,460.8l-10.8-6.3l0,0L737.3,460.8L737.3,460.8z"/>
	<path class="st9" d="M672,474.2c3.5,2,8.2,2,13.4,0.2l-20.2-11.6C666.2,468.2,668.5,472.2,672,474.2z"/>
	<path class="st10" d="M672,474.9c-3.5-2-5.8-6-6.8-11.5c-0.4-2.1-0.6-4.2-0.5-6.3c0.2-7.1,1.6-14.1,4.2-20.7
		c1.5-3.9,3.3-7.7,5.4-11.4l-10.8-6.3c-2.1,3.7-3.9,7.4-5.5,11.4c-3.4,8.2-5.4,17-5.7,25.9c0,0.4,0,0.8,0,1.2
		c0,13.3,4.8,23.5,13.6,28.5c3.8,2.2,8.1,3.3,12.4,3.2c6,0,12.5-1.9,19.1-5.7c0.3-0.2,0.7-0.4,1-0.6l-12.9-7.4
		C680.2,477,675.5,477,672,474.9z"/>
	<path class="st10" d="M722.4,387.2c-1.4-0.8-3-1.5-4.5-2c-7.9-2.6-17.3-1.1-26.9,4.5c-4.3,2.5-8.3,5.5-11.9,8.9
		c-6.2,5.9-11.5,12.6-15.7,20l10.8,6.2c4.2-7.5,9.7-14.1,16.2-19.7c2.1-1.8,4.3-3.3,6.7-4.7c3.2-1.9,6.6-3.2,10.3-3.8
		c6.2-1.4,12.4,2.1,14.3,8.2c4.2,0.5,8.5,0,12.6-1.4C732.2,396.1,728.2,390.5,722.4,387.2z"/>
	<path class="st10" d="M674.3,424.4l-10.8-6.3l0,0L674.3,424.4z"/>
	<path class="st9" d="M609,437.8c3.5,2,8.2,2,13.4,0.2l-20.2-11.7C603.2,431.8,605.5,435.8,609,437.8z"/>
	<path class="st10" d="M609,438.6c-3.5-2-5.8-6-6.8-11.5c-0.4-2.1-0.5-4.2-0.5-6.3c0.2-7.1,1.6-14.1,4.2-20.7
		c1.5-3.9,3.3-7.7,5.4-11.4l-10.8-6.3c-2.1,3.7-4,7.4-5.5,11.4c-3.4,8.2-5.4,16.9-5.7,25.8c0,0.4,0,0.8,0,1.2
		c0,13.3,4.8,23.5,13.6,28.5c3.8,2.2,8.1,3.3,12.4,3.2c6,0,12.5-1.9,19.1-5.7c0.3-0.2,0.7-0.4,1-0.6l-12.9-7.5
		C617.2,440.6,612.6,440.6,609,438.6z"/>
	<path class="st10" d="M659.4,350.8c-1.4-0.8-3-1.5-4.5-2c-7.9-2.6-17.3-1.1-26.9,4.5c-4.3,2.5-8.3,5.5-11.9,8.9
		c-6.2,5.9-11.5,12.6-15.7,20l10.8,6.3c4.2-7.5,9.7-14.1,16.2-19.7c2.1-1.8,4.3-3.3,6.7-4.7c3.2-1.9,6.6-3.2,10.3-3.8
		c6.2-1.4,12.4,2.2,14.3,8.2c4.2,0.5,8.5,0,12.6-1.4C669.2,359.8,665.2,354.2,659.4,350.8z"/>
	<path class="st10" d="M611.4,387.9l-10.8-6.2l0,0L611.4,387.9L611.4,387.9z"/>
	<path class="st9" d="M546.1,401.3c3.5,2,8.2,2,13.4,0.2l-20.2-11.7C540.2,395.3,542.5,399.3,546.1,401.3z"/>
	<path class="st10" d="M546.1,402.2c-3.5-2-5.8-6-6.8-11.5c-0.4-2.1-0.5-4.2-0.5-6.3c0.2-7.1,1.6-14.1,4.2-20.7
		c1.5-3.9,3.3-7.7,5.4-11.4l-10.8-6.3c-2.1,3.7-3.9,7.4-5.5,11.4c-3.4,8.2-5.4,16.9-5.7,25.8c0,0.4,0,0.8,0,1.2
		c0,13.3,4.8,23.5,13.6,28.5c3.8,2.2,8.1,3.3,12.4,3.2c6,0,12.5-1.9,19.1-5.7c0.3-0.2,0.7-0.4,1-0.6l-12.9-7.5
		C554.2,404.3,549.6,404.3,546.1,402.2z"/>
	<path class="st10" d="M596.4,314.5c-1.4-0.8-3-1.5-4.5-2c-7.9-2.6-17.3-1.1-26.9,4.5c-4.3,2.5-8.3,5.5-11.9,8.9
		c-6.2,5.9-11.5,12.6-15.7,20l10.8,6.3c4.2-7.5,9.7-14.1,16.2-19.7c2.1-1.8,4.3-3.3,6.7-4.7c3.2-1.9,6.6-3.2,10.3-3.8
		c6.2-1.4,12.4,2.2,14.3,8.2c4.2,0.5,8.5,0,12.6-1.4C606.2,323.4,602.2,317.8,596.4,314.5z"/>
	<path class="st10" d="M548.4,351.5l-10.8-6.2l0,0L548.4,351.5L548.4,351.5z"/>
	<polygon class="st7" points="526.8,446.6 526.8,493.8 362.8,588.4 178.6,482 178.6,434.7 	"/>
	<polygon class="st5" points="526.8,446.6 342.4,339.3 178.6,434.7 362.8,541.1 	"/>
	<path class="st11" d="M342.4,339.3l-163.8,95.4c0,0,98.3,66.4,210.5,81.3l166-107.7C555.1,408.3,416.9,387.2,342.4,339.3z"/>
	<path class="st2" d="M390.6,736.4l224.4-130c15.8-9.1,43.5-7.6,62,3.3l466.1,276.3c18.5,11,20.7,27.3,5,36.4l-224.4,130
		c-15.8,9.1-43.5,7.6-62-3.3L395.6,772.8C377.1,761.8,374.9,745.5,390.6,736.4z"/>
	<path class="st12" d="M1204.5,803.4L1204.5,803.4l31-17.7c0.6-2.7,1.8-4.7,3.7-5.7l27.4-15.7l0.9-0.5l0,0l5.4-3l0,0l0.7-0.4
		l8.2-4.6c2.1-1.1,4.6-1.2,6.7-0.3L1656.3,546c0.4-0.2,0.7-0.3,1.1-0.4v-0.1l53.7-16.3l17-5.2l-13,12l-41.4,38v-0.1
		c-0.3,0.2-0.6,0.5-0.9,0.8l-367.7,209.5c-0.4,2.3-1.8,4.4-3.8,5.7l-4.4,2.5h-0.1l-4.4,2.5l0,0l-5.4,3.1l0,0l-4.4,2.6l0,0
		l-23.9,13.6l0,0c-2.1,1.1-4.6,1.2-6.8,0.3l-30.9,17.7l0,0c-2.2,1.2-5,1-8.3-0.9c-6.4-3.8-11.6-12.9-11.6-20.3
		C1201.1,807.3,1202.4,804.7,1204.5,803.4z"/>
	<polygon class="st13" points="1711.6,525.6 1724.7,513.5 1707.7,518.7 	"/>
	<path class="st14" d="M1654,535l16.2,28.5l41.4-38l0,0c0.4-0.4,0.6-1,0.6-1.7c-0.1-2-1.1-3.8-2.7-4.8c-0.5-0.4-1.1-0.5-1.8-0.4l0,0
		L1654,535z"/>
	<path class="st15" d="M1278.6,748.8l16.4,28.7l374.3-213.3c2.1-1.2,3.3-3.8,3.4-7.6c0-7.4-5.2-16.6-11.6-20.3
		c-3.3-1.8-6.1-2-8.3-0.8L1278.6,748.8z"/>
	<polygon class="st10" points="1496.5,659.6 1496.4,654.2 1366.5,728.4 1366.5,733.8 	"/>
	<polygon class="st10" points="1360.8,737 1360.9,731.6 1329.1,749.8 1329.1,755.2 	"/>
	<path class="st16" d="M1286.9,749.7c6.4,3.7,11.6,12.9,11.5,20.3s-5.2,10.5-11.7,6.7s-11.6-12.8-11.6-20.3
		S1280.4,745.9,1286.9,749.7z"/>
	<path class="st13" d="M1286.8,759c2.1,1.4,3.5,3.8,3.6,6.3c0,2.3-1.7,3.2-3.7,2.1c-2.1-1.4-3.4-3.8-3.6-6.3
		C1283.2,758.7,1284.8,757.8,1286.8,759z"/>
	<path class="st17" d="M1235.8,769.7l19.5,34.1l42.5-24.3c2.5-1.4,4.1-4.6,4.1-8.9c0.1-8.9-6.1-19.7-13.8-24.1
		c-3.8-2.3-7.2-2.5-9.8-1L1235.8,769.7z"/>
	<path class="st18" d="M1245.5,770.7c7.7,4.5,13.8,15.2,13.8,24.1s-6.3,12.5-13.9,8s-13.8-15.3-13.8-24.1S1237.9,766.2,1245.5,770.7
		z"/>
	<path class="st19" d="M1249.9,768.2c7.6,4.5,13.8,15.3,13.8,24.1c0,4.5-1.6,7.5-4.1,9l4.4-2.5c2.5-1.4,4.1-4.5,4.1-8.9
		c0-8.9-6.1-19.7-13.8-24.1c-3.8-2.2-7.2-2.4-9.8-1l-4.5,2.5C1242.7,765.7,1246.1,766,1249.9,768.2z"/>
	<path class="st19" d="M1259.7,762.6c7.6,4.5,13.8,15.2,13.8,24.1c0,4.4-1.6,7.5-4.2,9l4.5-2.5c2.5-1.5,4.1-4.5,4.1-9
		c0.1-8.8-6.1-19.6-13.8-24.1c-3.8-2.2-7.3-2.4-9.8-1l-4.5,2.5C1252.4,760.2,1255.9,760.4,1259.7,762.6z"/>
	<path class="st19" d="M1269.5,757.1c7.7,4.5,13.8,15.2,13.8,24.1c0,4.4-1.6,7.5-4.1,9l4.4-2.5c2.6-1.4,4.1-4.5,4.1-8.9
		c0.1-8.9-6.2-19.7-13.7-24.2c-3.8-2.2-7.3-2.4-9.8-1l-4.5,2.6C1262.2,754.6,1265.7,754.8,1269.5,757.1z"/>
	<path class="st19" d="M1279.2,751.5c7.7,4.4,13.9,15.2,13.8,24.1c0,4.4-1.6,7.5-4.1,9l4.4-2.6c2.5-1.5,4.1-4.5,4.1-9
		c0-8.9-6.1-19.6-13.7-24.1c-3.8-2.2-7.3-2.5-9.8-1l-4.4,2.5C1272,749,1275.4,749.2,1279.2,751.5z"/>
	<path class="st20" d="M1201.1,793l16.4,28.8l35.9-20.5c2.1-1.2,3.5-3.8,3.5-7.6c0.1-7.4-5.2-16.5-11.6-20.3
		c-3.2-1.9-6.2-2.1-8.3-0.8L1201.1,793z"/>
	<path class="st21" d="M1209.4,793.9c6.4,3.8,11.6,12.9,11.5,20.3s-5.3,10.5-11.7,6.7s-11.6-12.8-11.6-20.3
		S1202.9,790.2,1209.4,793.9z"/>
	<g class="st22">
		<path d="M1456,141.6c-2.6,1.5-2.6,4,0,5.5l86.7,50.1c3,1.5,6.5,1.5,9.6,0L1601,169c2.6-1.5,2.6-4,0-5.5l-86.7-50.1
			c-3-1.5-6.6-1.5-9.6,0L1456,141.6z"/>
	</g>
	<path class="st23" d="M1453.4,131.8c0-8.8,6.1-19.4,13.7-23.8l40.1-23.2c3.7-2.1,7.2-2.4,9.6-1l0,0l87.9,50.7l-0.3,0.7
		c1.2,2,1.8,4.3,1.7,6.7c0,8.7-6.2,19.4-13.7,23.8l-40.2,23.2c-2.1,1.4-4.7,2-7.3,1.8l-0.1,0.5l-87.6-50.6
		C1454.9,139.1,1453.4,136.1,1453.4,131.8z"/>
	<path class="st24" d="M1554.7,158.6l40.2-23.2c7.6-4.4,13.7-0.8,13.7,7.9s-6.1,19.4-13.7,23.7l-40.2,23.2
		c-7.6,4.4-13.7,0.8-13.7-7.9S1547.2,163,1554.7,158.6z"/>
	<polygon class="st2" points="1467.1,108 1542,151.2 1582.1,128.1 1507.2,84.8 	"/>
	<polygon class="st24" points="1586.3,121.1 1586.3,130.5 1546.2,153.7 1546.2,144.2 	"/>
	<polygon class="st25" points="1454,91 1546.2,144.2 1546.2,153.7 1542,151.2 1542,144.7 1542,144.7 1454,93.9 	"/>
	<polygon class="st23" points="1454,91 1546.2,144.2 1586.3,121.1 1494.2,67.8 	"/>
	<path class="st12" d="M1140.5,70.4l268.1,152.3c-9.6,24.2,35,47.9,35,47.9l-1,0.6l17.8,15.4l-2.9,1.6l-27.3-9.8l-0.9,0.5
		c0,0-41-25.7-83-20.2l-265.9-153.6L1140.5,70.4z"/>
	<path class="st23" d="M1083.2,90.6c0-8.7,6.2-19.4,13.7-23.8l40.1-23.2c3.7-2.2,7.1-2.4,9.6-1l0,0l5.6,3.2l-0.3,0.8
		c1.2,2,1.8,4.3,1.7,6.7c0,8.8-6.1,19.4-13.7,23.7l-40.2,23.2c-2.1,1.4-4.7,2-7.2,1.8l-0.1,0.5l-5.4-3.1
		C1084.6,97.9,1083.2,94.9,1083.2,90.6z"/>
	<path class="st26" d="M1102.2,69.9l40.2-23.2c7.6-4.4,13.7-0.8,13.7,7.9s-6.1,19.3-13.7,23.8l-40.2,23.2
		c-7.6,4.4-13.7,0.8-13.7-7.9S1094.7,74.3,1102.2,69.9z"/>
	<path class="st10" d="M1102.2,68.8l40.1-23.2c2.1-1.3,4.6-2,7.1-2.1c1.8,0,3.5,0.5,4.9,1.4l0,0l252.3,145.8l-62.6,59.1
		l-251.8-145.3l0,0c-0.9-0.5-1.6-1.2-2.3-2c-1.7-2.4-2.6-5.4-2.5-8.3C1087.6,84.7,1094,73.6,1102.2,68.8z"/>
	<path class="st27" d="M1244.4,119.6l94.5,54.5c3.1,1.8,3.1,4.6,0,6.4c-3.5,1.8-7.6,1.8-11.1,0l-94.4-54.5c-3.1-1.8-3.1-4.6,0-6.4
		C1236.8,117.8,1240.9,117.8,1244.4,119.6z"/>
	<path class="st27" d="M1206.8,97.9l16.6,9.6c3.1,1.8,3.1,4.7,0,6.4c-3.5,1.8-7.6,1.8-11.1,0l-16.6-9.6c-3.1-1.8-3.1-4.6,0-6.4
		C1199.2,96.1,1203.3,96.1,1206.8,97.9z"/>
	<path class="st28" d="M1341.9,247.9c-1.8-2.4-2.6-5.4-2.5-8.4c0-9.5,6.4-20.6,14.7-25.3l40.1-23.2c2.1-1.3,4.5-2.1,7-2.1
		c5.8,0,9.4,4.6,9.4,11.6c0,9.5-6.4,20.6-14.6,25.4l-40.1,23.2c-2.1,1.3-4.6,2-7.1,2.1l0,0C1346.1,251.2,1343.5,250,1341.9,247.9z"
		/>
	<path class="st23" d="M1341.2,239.5c0-8.7,6.2-19.4,13.7-23.7l40.2-23.2c3.7-2.2,7.1-2.4,9.6-1l0,0l2.7,1.6l-0.3,0.8
		c1.2,2,1.8,4.3,1.7,6.6c0,8.8-6.1,19.4-13.7,23.7l-40.2,23.2c-2.2,1.4-4.7,2-7.2,1.8l-0.1,0.5l-2.4-1.4
		C1342.7,246.9,1341.2,243.8,1341.2,239.5z"/>
	<path class="st24" d="M1357.4,217.2l40.2-23.2c7.6-4.4,13.7-0.9,13.7,7.9s-6.2,19.4-13.7,23.8l-40.2,23.2
		c-7.6,4.4-13.7,0.8-13.7-7.9S1349.8,221.5,1357.4,217.2z"/>
	<path class="st24" d="M1346.4,248.8l62.2-35.9c1.9,7.9,35,47.9,35,47.9l-14.3,8.3C1429.3,269.1,1388.4,243.3,1346.4,248.8z"/>
	<path class="st24" d="M1346.4,248.8c0.9-0.4,23.1-9.5,47.5-4.3c0.6,0.9,19.3-12.9,21.2-16.2c-4.4-15.2-1.7-28.8-6.5-34.1
		c-7.3,8.6-60.3,35.2-62.3,36C1341,241.7,1345.1,247.7,1346.4,248.8z"/>
	<path class="st23" d="M1346.3,230.1l62.3-36c-9.6,24.2,35,47.9,35,47.9l-14.3,8.3C1429.3,250.3,1388.3,224.6,1346.3,230.1z"/>
	<polygon class="st25" points="1429.3,269.1 1443.7,260.8 1443.7,242 1429.3,250.3 	"/>
	<path class="st15" d="M1430.3,259.1c0.2-4.3,2.5-8.3,6.2-10.7c2-1.2,3.8-1.1,4.9,0l0,0l19.3,18.9l-2,3.2l-25.6-7.1
		c-0.1,0-0.1,0-0.2-0.1l-0.2-0.1l0,0C1431.2,262.8,1430.3,261.4,1430.3,259.1z"/>
	<path class="st20" d="M1458.2,269.7c0,0.9,0.6,1.2,1.4,0.8c0.8-0.5,1.3-1.4,1.3-2.4c0-0.9-0.6-1.2-1.3-0.8
		C1458.7,267.8,1458.2,268.7,1458.2,269.7z"/>
	<path class="st12" d="M1509.5,349.5l34.9-20.1c5.3-3.1,13.9-3.1,19.2,0l173.9,100.4c5.2,3,5.2,8,0,11l-34.8,20.1
		c-5.2,3.1-14,3.1-19.2,0l-174-100.4C1504.3,357.6,1504.3,352.6,1509.5,349.5z"/>
	<path class="st20" d="M1506.4,327.4l49.6-17.4l50.7,42.5l83,47.9l-54,31.2l-102.4-59.1c-1.5-0.8-2.6-1.9-3.4-3.4L1506.4,327.4z"/>
	<path class="st10" d="M1619.2,387.4l48.6,27.1l48.8-25.6l23.7,42l0,0c1.4,2.7,0.2,5.7-3.4,7.8l-34.9,20.1c-5.2,3-13.9,3-19.1,0
		l-42.5-24.6l-3.3-3.2l-22.3-39L1619.2,387.4z"/>
	<polygon class="st18" points="1640.4,434.3 1616.7,392.2 1617.3,388.2 1611.8,389.5 1635.7,431.6 	"/>
	<path class="st29" d="M1670.6,361l42.5,24.5c5.3,3.1,5.3,8,0,11.1l-34.8,20.1c-5.3,3.1-13.9,3.1-19.1,0l-42.4-24.5L1670.6,361z"/>
	<path class="st30" d="M1611.8,389.5l-102.3-59.1c-5.2-3.1-5.2-8,0-11.1l34.9-20.1c5.3-3.1,13.9-3.1,19.2,0l102.4,59.1L1611.8,389.5
		z"/>
	<polygon class="st29" points="1568.2,323.7 1637.1,363.5 1632,366.5 1563,326.7 	"/>
	<polygon class="st29" points="1624.9,370.5 1619.7,373.6 1576.8,348.8 1581.9,345.8 	"/>
	<polygon class="st31" points="1616.7,392.2 1670.6,361 1665.9,358.3 1611.8,389.5 	"/>
	<path class="st32" d="M845.3,346.8l-9.7-1.4l-2.4,1.4l6.1,3.5l-2.5,1.4l-15.2-8.8l4.3-2.5c1.6-1,3.5-1.7,5.4-1.9
		c1.7-0.1,3.3,0.3,4.7,1.1c1.9,1.1,2.3,2.4,1.1,4l11,1.4L845.3,346.8z M831.1,345.6l1.7-1c1.2-0.7,1.8-1.3,1.9-1.8s-0.3-1.1-1.2-1.6
		c-0.8-0.5-1.7-0.7-2.7-0.6c-1.1,0.2-2.1,0.6-3.1,1.1l-1.6,1L831.1,345.6"/>
	<path class="st32" d="M822.6,353.2c1.6,0.9,3.1,2,4.3,3.4c1,1,1.6,2.3,1.8,3.7l-2.1,1.2c-0.4-1.4-1.1-2.7-2.1-3.8
		c-1.2-1.3-2.6-2.4-4.1-3.3c-1.8-1-3.7-1.8-5.7-2.4c-2.1-0.6-4.3-1.1-6.6-1.2l2.1-1.2c2.2,0.1,4.4,0.5,6.5,1.1
		C818.8,351.3,820.7,352.1,822.6,353.2z"/>
	<path class="st32" d="M818.6,362.3l-2.4,1.4l-9.8-5.7c-1.2-0.7-2.1-1.2-2.7-1.7c0,0.2,0,0.4,0,0.7c0,0.2-0.2,1.1-0.4,2.5l-2.8-0.2
		l0.9-4.6l2-1.2L818.6,362.3z"/>
	<path class="st32" d="M872.9,330.7l-1.9,1.1l-1.8-0.7l-0.1,0.1c0.2,0.5,0.1,1.1-0.2,1.6c-0.4,0.6-1,1.2-1.7,1.5
		c-1.2,0.8-2.7,1.2-4.1,1.2c-1.5,0-2.9-0.5-4.2-1.2l-7.5-4.3l2.5-1.4l7.1,4.1c0.8,0.5,1.6,0.8,2.5,0.8c0.8,0,1.6-0.2,2.3-0.6
		c1-0.6,1.5-1.2,1.3-1.8s-0.9-1.4-2.4-2.2l-5.7-3.3l2.4-1.4L872.9,330.7z"/>
	<path class="st32" d="M857.3,338.2c0.1,1.2-0.7,2.2-2.4,3.2c-1.1,0.6-2.3,1-3.5,1.2c-1.3,0.2-2.7,0.2-4-0.1
		c-1.3-0.3-2.6-0.8-3.8-1.5c-1.9-1.1-2.8-2.2-2.9-3.4c-0.1-1.1,0.7-2.2,2.5-3.2c1.7-1,3.6-1.4,5.5-1.4c2,0.1,4,0.6,5.8,1.7
		C856.3,335.9,857.3,337,857.3,338.2z M846.1,339.6c2.7,1.5,5,1.7,6.9,0.6s1.6-2.4-1.1-4s-4.9-1.7-6.9-0.6c-1,0.6-1.4,1.2-1.2,1.9
		C844.3,338.4,845.1,339.2,846.1,339.6"/>
	<path class="st32" d="M886.4,322.9l-2.4,1.4l-7.1-4.1c-0.8-0.5-1.6-0.8-2.5-0.8c-0.8,0-1.6,0.2-2.3,0.6c-1,0.6-1.5,1.2-1.3,1.8
		s0.9,1.4,2.4,2.2l5.7,3.3l-2.4,1.4l-11.5-6.6l1.9-1.1l1.8,0.7l0.1-0.1c-0.2-0.5-0.1-1.1,0.2-1.5c0.4-0.6,1-1.1,1.7-1.5
		c2.5-1.6,5.8-1.6,8.3,0L886.4,322.9z"/>
	<path class="st32" d="M926.8,299.4l-2.4,1.4l-7.1-4.1c-0.8-0.5-1.6-0.8-2.5-0.8c-0.8,0-1.6,0.2-2.3,0.6c-1,0.6-1.5,1.2-1.3,1.8
		c0.1,0.6,0.9,1.4,2.4,2.2l5.7,3.3l-2.4,1.4l-16.2-9.3l2.4-1.4l4.1,2.4c0.7,0.4,1.3,0.8,2,1.3l0.2-0.1c-0.2-0.5-0.2-1.1,0.1-1.5
		c0.4-0.6,1-1.2,1.6-1.5c2.5-1.6,5.8-1.6,8.3,0L926.8,299.4z"/>
	<g>
		<path class="st32" d="M895.5,315.8c0.4,1.1-0.2,2.1-1.7,3c-1.5,0.8-3.2,1.2-4.9,1c-2-0.2-3.9-0.8-5.6-1.8
			c-1.9-1.1-2.9-2.2-3.2-3.2c-0.2-1.1,0.3-2,1.8-2.9c1.5-0.9,3.3-1.2,5.1-1l0.1-0.1c-0.7-0.3-1.4-0.6-2.1-1l-4.2-2.4l2.4-1.4
			l16.2,9.3l-1.9,1.1l-1.9-0.6L895.5,315.8z M889.5,317.8c1,0.1,2.1-0.1,3-0.6c1-0.6,1.4-1.2,1.3-1.8s-0.8-1.3-2-2l-0.3-0.2
			c-1.1-0.7-2.4-1.2-3.8-1.4c-1.1-0.1-2.2,0.2-3.1,0.8c-0.8,0.5-1.2,1.1-0.9,1.8c0.5,0.9,1.3,1.7,2.3,2.1
			C887,317.2,888.3,317.7,889.5,317.8"/>
		<path class="st32" d="M914.3,306.4c-0.2,0.3-0.5,0.5-0.7,0.8c-0.4,0.3-0.8,0.6-1.2,0.8c-2.2,1.3-5,1.3-7.1-0.1l-6.2-3.6l-1.6,0.9
			l-1.1-0.6l0.8-1.5l-1.6-1.9l1.5-0.9l2.6,1.5l3.2-1.9l1.8,1.1l-3.2,1.9l6.2,3.5c0.5,0.3,1.1,0.5,1.7,0.5c0.6,0,1.1-0.2,1.6-0.4
			c0.6-0.3,1.1-0.7,1.5-1.2L914.3,306.4z"/>
	</g>
	<path class="st32" d="M918.2,287.5c0.4,0.2,0.6,0.5,0.6,0.8s-0.2,0.5-0.6,0.8c-0.8,0.5-1.9,0.5-2.7,0c-0.4-0.2-0.7-0.5-0.6-0.8
		s0.2-0.5,0.7-0.8c0.4-0.2,0.9-0.4,1.3-0.4C917.4,287.1,917.8,287.3,918.2,287.5z"/>
	<path class="st32" d="M940.5,287.6c1.1,0.6,1.6,1.4,1.4,2.2s-1.1,1.7-2.6,2.5c-1.3,0.8-2.8,1.4-4.4,1.7l-2.1-1.2
		c1.6-0.3,3.2-0.8,4.7-1.6c1.5-0.9,1.8-1.6,0.9-2.1c-0.3-0.2-0.6-0.3-1-0.3c-0.5,0-0.9,0-1.3,0.1c-0.6,0.1-1.3,0.3-2.3,0.5
		c-1.4,0.4-2.8,0.6-4.2,0.7c-0.9,0-1.9-0.3-2.7-0.8c-1-0.6-1.3-1.2-1.1-2c0.5-1,1.4-1.9,2.4-2.3c1.4-0.8,3-1.4,4.6-1.8l1.1,1.5
		c-1.4,0.3-2.7,0.7-3.9,1.4c-1.3,0.7-1.6,1.3-0.8,1.8c0.4,0.2,0.9,0.3,1.4,0.2c1.1-0.2,2.2-0.4,3.2-0.7c1-0.3,2-0.5,3.1-0.6
		c0.7-0.1,1.3-0.1,2,0C939.4,287.1,940,287.3,940.5,287.6z"/>
	<polygon class="st32" points="921.1,289.4 932.6,296 930.2,297.4 918.7,290.8 	"/>
	<path class="st32" d="M961.9,279l-2.4,1.4l-7.1-4.1c-0.8-0.5-1.6-0.8-2.5-0.8c-0.8,0-1.6,0.2-2.3,0.6c-1,0.6-1.5,1.2-1.3,1.8
		s0.9,1.4,2.3,2.2l5.7,3.3l-2.4,1.4l-11.5-6.6l1.9-1.1l1.8,0.7l0.1-0.1c-0.2-0.5-0.1-1.1,0.2-1.6c0.4-0.6,1-1.1,1.7-1.5
		c2.5-1.6,5.8-1.6,8.3,0L961.9,279z"/>
	<path class="st32" d="M975.3,271.2l-1.9,1.1l-1.8-0.7l-0.1,0.1c0.2,0.5,0.1,1.1-0.2,1.6c-0.4,0.6-1,1.2-1.7,1.5
		c-1.2,0.8-2.7,1.2-4.1,1.2c-1.5,0-2.9-0.5-4.2-1.2l-7.5-4.3l2.5-1.4l7.1,4.1c0.8,0.5,1.6,0.7,2.5,0.8c0.8,0,1.6-0.2,2.3-0.6
		c1-0.6,1.4-1.2,1.3-1.8c-0.1-0.6-0.9-1.4-2.4-2.2l-5.7-3.3l2.4-1.4L975.3,271.2z"/>
	<path class="st32" d="M995.5,259.4l-2.4,1.4l-7.1-4.1c-0.7-0.5-1.6-0.8-2.5-0.8c-0.8-0.1-1.5,0.1-2.2,0.5c-1,0.5-1.3,1.1-1.2,1.7
		s0.8,1.2,2.1,2l6.1,3.5l-2.4,1.3l-7.1-4.1c-0.7-0.5-1.6-0.7-2.5-0.8c-0.8-0.1-1.5,0.1-2.2,0.5c-0.9,0.5-1.3,1.1-1.1,1.7
		s1,1.3,2.4,2.1l5.7,3.3l-2.4,1.4l-11.5-6.6l1.9-1.1l1.8,0.7l0.1-0.1c-0.2-0.5-0.2-1.1,0.1-1.5c0.4-0.6,0.9-1.1,1.5-1.4
		c1.6-1,3.5-1.3,5.3-1l0.2-0.1c-0.2-0.5-0.2-1.1,0.1-1.6c0.4-0.6,1-1.2,1.6-1.5c1.2-0.7,2.6-1.1,4-1.1c1.5,0.1,2.9,0.5,4.1,1.3
		L995.5,259.4z"/>
	<path class="st32" d="M1000,255.3l-0.2,0.1l0.9,1.1l-1.8,1l-16.2-9.3l2.4-1.4l3.8,2.2c0.3,0.2,0.7,0.4,1.2,0.8l1,0.7l0.1-0.1
		c-0.4-1.1,0.2-2.1,1.7-3c1.5-0.8,3.2-1.2,4.9-1c2,0.2,3.9,0.8,5.6,1.8c1.9,1.1,3,2.2,3.2,3.2s-0.4,2-1.8,2.9
		C1003.4,255,1001.7,255.4,1000,255.3z M999.3,254.1c1.1,0.1,2.2-0.2,3.1-0.7c0.9-0.5,1.2-1.1,0.9-1.7c-0.5-0.9-1.3-1.7-2.3-2.1
		c-2.6-1.5-4.8-1.8-6.6-0.7c-1,0.6-1.4,1.1-1.2,1.7s0.9,1.3,2.2,2.1l0.2,0.1C996.7,253.4,998,253.9,999.3,254.1"/>
	<path class="st32" d="M1019.2,245.7c-0.6,0.5-1.2,0.9-1.9,1.3c-1.7,1-3.7,1.5-5.7,1.5c-2,0-4-0.6-5.8-1.6c-1.9-1.1-2.9-2.2-3-3.4
		c-0.1-1.2,0.6-2.2,2.2-3.2c1.5-0.9,3.2-1.3,5-1.3c1.8,0,3.6,0.5,5.1,1.4l1.3,0.8l-7.6,4.4c1.1,0.6,2.2,1,3.5,1
		c1.2,0,2.3-0.3,3.3-0.9c0.6-0.3,1.2-0.8,1.7-1.2c0.5-0.4,0.9-0.9,1.2-1.5l2,1.1C1020.1,244.9,1019.7,245.3,1019.2,245.7z
		 M1007,244.7l5.2-3c-0.9-0.5-1.8-0.8-2.8-0.9c-0.9,0-1.8,0.2-2.5,0.6c-0.8,0.4-1.1,1-1.1,1.5S1006.1,244.1,1007,244.7"/>
	<path class="st32" d="M1054.5,223.6c0.1,1.2-0.7,2.2-2.4,3.2c-1.1,0.6-2.3,1-3.6,1.2c-1.3,0.2-2.7,0.2-4-0.1
		c-1.3-0.3-2.6-0.8-3.8-1.4c-1.9-1.1-2.8-2.2-2.9-3.4c-0.1-1.1,0.7-2.2,2.4-3.2c1.7-1,3.6-1.4,5.5-1.4c2,0.1,4,0.6,5.8,1.7
		C1053.4,221.3,1054.4,222.4,1054.5,223.6z M1043.3,225c2.7,1.5,5,1.7,6.9,0.6s1.6-2.4-1.1-4s-4.9-1.7-6.8-0.6
		c-1,0.6-1.4,1.2-1.2,1.9C1041.5,223.8,1042.3,224.5,1043.3,225"/>
	<path class="st32" d="M1044.7,230.6c-0.2,0.3-0.5,0.6-0.8,0.8c-0.4,0.3-0.8,0.6-1.2,0.8c-2.2,1.3-5,1.3-7.1-0.1l-6.2-3.6l-1.6,0.9
		l-1.1-0.6l0.8-1.5l-1.6-1.9l1.5-0.9l2.6,1.5l3.2-1.9l1.8,1.1l-3.2,1.9l6.2,3.6c0.5,0.3,1.1,0.5,1.8,0.5c0.6,0,1.1-0.1,1.6-0.4
		c0.6-0.3,1.1-0.7,1.5-1.2L1044.7,230.6z"/>
	<path class="st32" d="M1019.7,232l2,1.5c-0.4,0.1-0.8,0.3-1.2,0.6c-1,0.6-1.4,1.2-1.4,1.9c0,0.7,0.6,1.4,1.6,2l6,3.5l-2.4,1.4
		l-11.5-6.6l1.9-1.1l2.3,1l0.1-0.1c-0.3-0.6-0.4-1.2-0.2-1.8c0.3-0.6,0.7-1.2,1.4-1.5C1018.8,232.4,1019.2,232.2,1019.7,232z"/>
	<path class="st32" d="M889.2,350.6c-0.2,0.3-0.5,0.6-0.7,0.8c-0.4,0.3-0.8,0.6-1.2,0.8c-2.2,1.3-5,1.3-7.1-0.1l-6.2-3.6l-1.6,0.9
		l-1.1-0.6l0.8-1.5l-1.6-1.9l1.5-0.9l2.5,1.5l3.2-1.9l1.8,1.1l-3.2,1.9l6.2,3.5c0.5,0.3,1.1,0.5,1.7,0.5c0.6,0,1.1-0.1,1.6-0.4
		c0.6-0.3,1.1-0.7,1.5-1.2L889.2,350.6z"/>
	<path class="st32" d="M901.8,343.5l-2.4,1.5l-7.1-4.1c-0.8-0.5-1.6-0.8-2.5-0.8c-0.8,0-1.6,0.2-2.3,0.6c-1,0.6-1.5,1.2-1.3,1.8
		s0.9,1.4,2.4,2.2l5.7,3.3l-2.4,1.4l-16.2-9.4l2.4-1.4l4.1,2.4c0.7,0.4,1.3,0.8,2,1.3l0.2-0.1c-0.2-0.5-0.2-1.1,0.1-1.5
		c0.4-0.6,1-1.1,1.6-1.5c2.6-1.6,5.8-1.6,8.4,0L901.8,343.5z"/>
	<path class="st32" d="M912.2,337.5c-0.6,0.5-1.2,0.9-1.9,1.3c-1.7,1-3.7,1.5-5.7,1.5c-2,0-4-0.6-5.8-1.6c-1.9-1.1-2.9-2.2-3-3.4
		c-0.1-1.2,0.6-2.2,2.2-3.2c1.5-0.9,3.2-1.3,5-1.3c1.8,0,3.6,0.5,5.1,1.4l1.3,0.8l-7.6,4.4c1.1,0.6,2.2,1,3.5,1
		c1.2,0,2.3-0.3,3.3-0.9c0.6-0.3,1.2-0.8,1.7-1.2c0.5-0.4,0.9-0.9,1.2-1.5l2,1.1C913.1,336.6,912.7,337.1,912.2,337.5z M900,336.5
		l5.2-3c-0.9-0.5-1.8-0.8-2.8-0.9c-0.9,0-1.8,0.2-2.6,0.6c-0.8,0.4-1.1,1-1.1,1.5S899.2,335.9,900,336.5"/>
	<path class="st32" d="M932.8,325.5l-2.4,1.4l-7.1-4.1c-0.8-0.5-1.6-0.8-2.5-0.8c-0.8,0-1.6,0.2-2.3,0.6c-1,0.6-1.5,1.2-1.3,1.8
		s0.9,1.4,2.3,2.2l5.7,3.3l-2.4,1.4l-11.5-6.6l1.9-1.1l1.8,0.7l0.1-0.1c-0.2-0.5-0.1-1.1,0.2-1.6c0.4-0.6,1-1.1,1.7-1.5
		c2.5-1.6,5.8-1.6,8.3,0L932.8,325.5z"/>
	<path class="st32" d="M986.4,290.6c1.1,0.6,1.6,1.4,1.4,2.2s-1.1,1.7-2.6,2.5c-1.3,0.8-2.8,1.4-4.4,1.7l-2.1-1.2
		c1.6-0.3,3.2-0.9,4.7-1.6c1.5-0.9,1.8-1.6,0.9-2.1c-0.3-0.2-0.6-0.3-1-0.3c-0.5,0-0.9,0-1.4,0.1c-0.6,0.1-1.4,0.3-2.3,0.5
		c-1.4,0.4-2.8,0.6-4.2,0.7c-0.9,0-1.9-0.3-2.7-0.7c-1-0.6-1.3-1.2-1.1-2c0.5-1,1.3-1.9,2.4-2.3c1.4-0.8,3-1.4,4.6-1.7l1.1,1.5
		c-1.3,0.3-2.7,0.7-3.9,1.4c-1.3,0.7-1.5,1.3-0.8,1.8c0.4,0.2,0.9,0.3,1.4,0.2c1.1-0.2,2.1-0.4,3.2-0.7c1-0.3,2-0.5,3.1-0.6
		c0.7-0.1,1.3-0.1,2,0C985.2,290,985.8,290.2,986.4,290.6z"/>
	<g>
		<path class="st32" d="M953.2,313.5c-0.5,0.6-1.1,1.1-1.8,1.5c-1.1,0.6-2.3,1-3.5,1c-1.2,0-2.5-0.3-3.5-1c-1.2-0.7-1.7-1.5-1.4-2.3
			s1.3-1.8,3-2.9l1.9-1.2l-0.6-0.4c-0.7-0.4-1.4-0.6-2.2-0.6c-0.7,0-1.5,0.2-2.1,0.6c-0.5,0.3-1,0.7-1.4,1.1
			c-0.3,0.4-0.7,0.8-0.9,1.3l-2.5-0.5c0.3-0.6,0.8-1.1,1.3-1.6c0.6-0.5,1.2-1,1.8-1.4c1.3-0.8,2.7-1.3,4.2-1.4
			c1.4,0,2.9,0.3,4.1,1.1l7.8,4.5l-1.7,1l-2.1-0.6l-0.1,0C953.5,312.3,953.5,312.9,953.2,313.5z M948.5,313.9c0.6,0,1.2-0.2,1.8-0.5
			c0.9-0.5,1.3-1.1,1.4-1.7s-0.4-1.1-1.3-1.7l-1-0.6l-1.4,0.9c-0.8,0.4-1.5,1-1.9,1.8c-0.2,0.5,0.1,1,0.8,1.4
			C947.3,313.8,947.9,314,948.5,313.9"/>
		<path class="st32" d="M956.1,298.5l2,1.5c-0.4,0.1-0.8,0.3-1.2,0.5c-1,0.6-1.4,1.2-1.4,1.9s0.6,1.4,1.6,2l6,3.5l-2.4,1.4
			l-11.5-6.6l1.9-1.1l2.3,1l0.1-0.1c-0.3-0.6-0.4-1.2-0.2-1.8c0.3-0.6,0.7-1.2,1.4-1.5C955.2,298.9,955.6,298.7,956.1,298.5z"/>
		<path class="st32" d="M976.9,299.9c-0.6,0.5-1.2,0.9-1.9,1.3c-1.7,1-3.7,1.5-5.7,1.5c-2,0-4-0.6-5.8-1.6c-1.9-1.1-2.9-2.2-3-3.4
			c-0.1-1.2,0.6-2.2,2.2-3.2c1.5-0.9,3.2-1.3,5-1.3c1.8,0,3.6,0.5,5.1,1.4l1.3,0.8l-7.6,4.4c1.1,0.6,2.2,1,3.5,1
			c1.2,0,2.3-0.3,3.3-0.9c0.6-0.3,1.2-0.7,1.7-1.2c0.5-0.4,0.9-0.9,1.2-1.5l2,1.1C977.8,299.1,977.4,299.5,976.9,299.9z
			 M964.7,298.9l5.2-3c-0.9-0.5-1.9-0.8-2.9-0.9c-0.9,0-1.8,0.2-2.5,0.6c-0.8,0.5-1.1,1-1.1,1.5S963.8,298.3,964.7,298.9"/>
	</g>
	<path class="st32" d="M943.3,319.4c-0.6,0.5-1.2,0.9-1.9,1.3c-1.7,1-3.7,1.5-5.7,1.5c-2,0-4.1-0.6-5.8-1.6c-1.9-1.1-2.9-2.2-3-3.4
		s0.6-2.2,2.2-3.2c1.5-0.9,3.2-1.3,5-1.3c1.8,0,3.6,0.5,5.1,1.4l1.3,0.8l-7.6,4.4c1.1,0.6,2.2,1,3.5,1c1.2,0,2.3-0.3,3.3-0.9
		c0.6-0.3,1.2-0.7,1.7-1.2c0.5-0.4,0.9-0.9,1.2-1.5l2,1.1C944.2,318.6,943.8,319,943.3,319.4z M931.1,318.4l5.2-3
		c-0.9-0.5-1.8-0.8-2.8-0.9c-0.9,0-1.8,0.2-2.5,0.6c-0.8,0.4-1.1,1-1.1,1.5S930.3,317.8,931.1,318.4"/>
	<path class="st32" d="M1011.9,279.3c-0.2,0.3-0.5,0.5-0.7,0.8c-0.4,0.3-0.8,0.6-1.2,0.8c-2.2,1.3-5,1.3-7.1-0.1l-6.2-3.6l-1.6,0.9
		l-1.1-0.6l0.8-1.5l-1.6-1.9l1.5-0.9l2.6,1.5l3.2-1.9l1.8,1.1l-3.2,1.9l6.2,3.5c0.5,0.3,1.1,0.5,1.7,0.5c0.6,0,1.1-0.2,1.6-0.4
		c0.6-0.3,1.1-0.7,1.5-1.2L1011.9,279.3z"/>
	<path class="st32" d="M998.1,287.3c-0.2,0.3-0.5,0.5-0.8,0.8c-0.4,0.3-0.8,0.6-1.2,0.8c-2.2,1.3-5,1.3-7.1-0.1l-6.2-3.6l-1.6,0.9
		l-1.1-0.6l0.8-1.5l-1.6-1.9l1.5-0.9l2.6,1.5l3.2-1.9l1.8,1.1l-3.2,1.9l6.2,3.5c0.5,0.3,1.1,0.5,1.7,0.5c0.6,0,1.1-0.1,1.6-0.4
		c0.6-0.3,1.1-0.7,1.5-1.2L998.1,287.3z"/>
	<path class="st32" d="M1021.5,274c-0.6,0.5-1.2,0.9-1.9,1.3c-1.7,1-3.7,1.6-5.7,1.5c-2,0-4.1-0.6-5.8-1.6c-1.9-1.1-2.9-2.2-3-3.4
		s0.6-2.2,2.2-3.1c1.5-0.9,3.2-1.3,5-1.3c1.8,0,3.6,0.5,5.1,1.4l1.3,0.8l-7.6,4.4c1.1,0.6,2.2,1,3.5,1c1.2,0,2.3-0.3,3.3-0.9
		c0.6-0.3,1.2-0.7,1.7-1.2c0.5-0.4,0.9-0.9,1.2-1.5l2,1.1C1022.3,273.1,1021.9,273.6,1021.5,274z M1009.3,273l5.2-3
		c-0.9-0.5-1.8-0.8-2.8-0.9c-0.9,0-1.8,0.2-2.5,0.6c-0.8,0.5-1.1,1-1.1,1.5S1008.4,272.4,1009.3,273"/>
	<path class="st32" d="M1036.6,265.2l-2.4,1.4l-7.1-4.1c-0.8-0.5-1.6-0.8-2.5-0.8c-0.8,0-1.6,0.2-2.3,0.6c-1,0.6-1.5,1.2-1.3,1.8
		s0.9,1.4,2.3,2.2l5.7,3.3l-2.4,1.4l-11.5-6.6l1.9-1.1l1.8,0.7l0.1-0.1c-0.2-0.5-0.1-1.1,0.2-1.6c0.4-0.6,1-1.1,1.7-1.5
		c2.5-1.6,5.8-1.6,8.3,0L1036.6,265.2z"/>
	<path class="st32" d="M1058.3,252.5l-2.4,1.4l-7.1-4.1c-0.8-0.5-1.6-0.8-2.5-0.8c-0.8,0-1.6,0.2-2.3,0.6c-1,0.6-1.5,1.2-1.3,1.8
		s0.9,1.4,2.4,2.2l5.7,3.3l-2.4,1.4l-16.2-9.4l2.4-1.4l4.1,2.4c0.7,0.4,1.4,0.8,2,1.3l0.2-0.1c-0.2-0.5-0.2-1.1,0.1-1.6
		c0.4-0.6,1-1.1,1.6-1.5c2.6-1.6,5.8-1.6,8.3,0L1058.3,252.5z"/>
	<path class="st32" d="M1045.8,259.6c-0.2,0.3-0.5,0.5-0.8,0.8c-0.4,0.3-0.8,0.6-1.2,0.8c-2.2,1.3-5,1.3-7.1-0.1l-6.2-3.6l-1.6,0.9
		l-1.1-0.6l0.8-1.5l-1.6-1.9l1.5-0.9l2.6,1.5l3.3-1.9l1.8,1.1l-3.2,1.9l6.2,3.5c0.5,0.3,1.1,0.5,1.7,0.5c0.6,0,1.1-0.2,1.6-0.4
		c0.6-0.3,1.1-0.7,1.5-1.2L1045.8,259.6z"/>
	<path class="st32" d="M1063.1,248.2c0.5,0.3,0.8,0.6,0.8,0.9s-0.2,0.6-0.7,0.9c-0.5,0.3-1,0.4-1.6,0.4c-0.6,0-1.1-0.2-1.6-0.4
		c-0.5-0.3-0.8-0.6-0.8-0.9s0.2-0.6,0.7-0.9c0.5-0.3,1-0.4,1.6-0.4C1062.1,247.8,1062.7,248,1063.1,248.2z"/>
	<path class="st32" d="M669,299.3c1.3,0.8,1.9,1.7,1.7,2.7s-1.2,2-2.9,3c-1.5,0.9-3.2,1.6-5,2l-2.3-1.4c1-0.2,2-0.5,3-0.8
		c0.8-0.3,1.7-0.7,2.4-1.1c1-0.6,1.5-1.1,1.6-1.6s-0.2-0.9-0.8-1.3c-0.6-0.3-1.4-0.5-2.1-0.5c-1.4,0.1-2.7,0.4-4,0.7
		c-1.6,0.4-3.2,0.6-4.8,0.6c-1.2-0.1-2.4-0.4-3.4-1c-1.3-0.7-1.8-1.6-1.7-2.5s1-1.9,2.5-2.7c1.6-0.9,3.4-1.6,5.3-2l1.2,1.6
		c-1.5,0.3-3,0.9-4.4,1.6c-0.8,0.5-1.2,0.9-1.3,1.4s0.2,0.8,0.8,1.2c0.4,0.2,0.8,0.4,1.3,0.4c0.5,0.1,1.1,0.1,1.6,0
		c1-0.2,2-0.4,3-0.6c1.2-0.3,2.5-0.5,3.7-0.7c0.8-0.1,1.7,0,2.5,0.1C667.6,298.6,668.3,298.9,669,299.3z"/>
	<g>
		<path class="st32" d="M685.7,294.3l-1.9,1.1l-1.8-0.7l-0.1,0.1c0.2,0.5,0.1,1.1-0.2,1.6c-0.4,0.6-1,1.2-1.7,1.5
			c-1.2,0.8-2.7,1.2-4.1,1.2c-1.5,0-2.9-0.5-4.2-1.2l-7.5-4.3l2.5-1.4l7.1,4.1c0.8,0.5,1.6,0.8,2.5,0.8c0.8,0,1.6-0.2,2.3-0.6
			c1-0.6,1.5-1.2,1.3-1.8s-0.9-1.4-2.4-2.2l-5.7-3.3l2.4-1.4L685.7,294.3z"/>
		<path class="st32" d="M690.2,290.1l-0.2,0.1l0.9,1l-1.8,1.1L673,283l2.4-1.4l3.8,2.2l1.2,0.8l1,0.6l0.1-0.1
			c-0.4-1.1,0.2-2.1,1.7-3c1.5-0.8,3.2-1.2,4.9-1c2,0.2,3.9,0.8,5.6,1.8c1.9,1.1,3,2.2,3.2,3.2s-0.4,2-1.8,2.9
			C693.7,289.9,692,290.3,690.2,290.1z M689.5,288.9c1.1,0.1,2.2-0.1,3.1-0.7c0.8-0.5,1.2-1.1,0.9-1.7c-0.5-0.9-1.3-1.7-2.3-2.1
			c-2.6-1.5-4.8-1.7-6.6-0.7c-1,0.6-1.4,1.1-1.2,1.7s0.9,1.3,2.2,2.1l0.2,0.1C687,288.3,688.2,288.7,689.5,288.9"/>
	</g>
	<path class="st32" d="M690.4,274.8c0.4,0.2,0.6,0.5,0.6,0.8s-0.2,0.5-0.6,0.8c-0.4,0.2-0.9,0.4-1.4,0.4c-0.5,0-0.9-0.1-1.3-0.4
		c-0.4-0.2-0.7-0.5-0.7-0.8s0.2-0.5,0.7-0.8c0.4-0.2,0.9-0.4,1.4-0.4C689.5,274.4,690,274.5,690.4,274.8z"/>
	<path class="st32" d="M715.3,277.1c-0.6,0.5-1.2,0.9-1.9,1.3c-1.7,1-3.7,1.5-5.7,1.5c-2,0-4-0.6-5.8-1.6c-1.9-1.1-2.9-2.2-3-3.4
		s0.6-2.2,2.2-3.1c1.5-0.9,3.2-1.3,5-1.3c1.8,0,3.6,0.5,5.1,1.4l1.3,0.8l-7.6,4.4c1.1,0.6,2.2,1,3.5,1c1.2,0,2.3-0.3,3.3-0.9
		c0.6-0.3,1.2-0.7,1.7-1.2c0.5-0.4,0.9-0.9,1.2-1.5l2,1.1C716.3,276.3,715.8,276.7,715.3,277.1z M703.1,276.1l5.2-3
		c-0.9-0.5-1.8-0.8-2.8-0.9c-0.9,0-1.8,0.2-2.5,0.6c-0.8,0.4-1.2,1-1.1,1.5S702.3,275.6,703.1,276.1"/>
	<path class="st32" d="M708.1,286.2c0,0.7-0.6,1.4-1.8,2.1c-0.7,0.4-1.4,0.7-2.1,0.9l-1.9-1.1c0.6-0.2,1.1-0.4,1.6-0.7
		c1-0.6,1-1.2-0.2-1.9l-12.8-7.4l2.4-1.4l13,7.5C707.5,284.8,708.1,285.5,708.1,286.2z"/>
	<path class="st32" d="M741.4,261.8c0,0.3-0.2,0.6-0.7,0.9c-0.5,0.3-1,0.4-1.6,0.4c-0.6,0-1.1-0.2-1.6-0.5c-0.5-0.3-0.8-0.6-0.8-0.9
		s0.2-0.6,0.7-0.9c0.5-0.3,1-0.4,1.6-0.4c0.5,0,1.1,0.2,1.5,0.4C741.1,261.2,741.4,261.5,741.4,261.8z"/>
	<path class="st32" d="M731.8,255.8c0.5,0.3,0.8,0.6,0.8,0.9s-0.2,0.6-0.7,0.9c-0.5,0.3-1,0.4-1.6,0.4c-0.6,0-1.1-0.2-1.6-0.5
		c-1-0.6-1.1-1.2,0-1.8c0.5-0.3,1-0.4,1.6-0.4C730.8,255.3,731.3,255.5,731.8,255.8z"/>
	<path class="st32" d="M736.7,264.4c-0.2,0.3-0.5,0.6-0.7,0.8c-0.4,0.3-0.8,0.6-1.2,0.8c-2.2,1.3-5,1.3-7.1-0.1l-6.2-3.6l-1.6,0.9
		l-1.1-0.6l0.8-1.5l-1.6-1.9l1.5-0.9l2.6,1.5l3.2-1.9l1.8,1.1l-3.2,1.9l6.2,3.6c0.5,0.3,1.1,0.5,1.7,0.5c0.6,0,1.1-0.1,1.6-0.4
		c0.6-0.3,1.1-0.7,1.5-1.2L736.7,264.4z"/>
	<path class="st32" d="M717.5,263.1l1.2,1.6c-1.1,0.2-2.2,0.6-3.2,1.1c-2,1.1-1.6,2.5,1,4c1.1,0.7,2.4,1.1,3.7,1.2
		c1.1,0.1,2.2-0.1,3.1-0.7c1-0.5,1.7-1.3,2.2-2.2l2.1,1.2c-0.2,0.4-0.5,0.8-0.8,1.1c-0.5,0.4-1,0.8-1.6,1.1c-1.6,1-3.5,1.5-5.5,1.4
		c-2-0.1-4-0.7-5.7-1.7c-1.9-1.1-3-2.2-3-3.4s0.7-2.2,2.5-3.3C714.8,263.9,716.1,263.4,717.5,263.1z"/>
	<path class="st32" d="M766.3,247.5l-2.3,1.4l-7.5-4.3c-0.8-0.4-1.7-1-2.9-1.7l-2.1-1.3l-0.1,0.1l8.1,9.9l-2.2,1.3l-17.1-4.8h-0.1
		c2,1,3.8,2,5.5,3l7.3,4.3l-2.2,1.3l-15.2-8.8l3.5-2l16.3,4.5h0.1l-7.8-9.5l3.5-2L766.3,247.5z"/>
	<path class="st32" d="M788.1,234.6c-0.2,0.3-0.5,0.5-0.7,0.8c-0.4,0.3-0.8,0.6-1.2,0.8c-2.2,1.3-5,1.3-7.1-0.1l-6.2-3.6l-1.6,0.9
		l-1.1-0.6l0.8-1.5l-1.6-1.9l1.5-0.9l2.6,1.5l3.2-1.9l1.8,1.1l-3.3,1.9l6.2,3.6c0.5,0.3,1.1,0.5,1.7,0.5c0.6,0,1.1-0.2,1.6-0.4
		c0.6-0.3,1.1-0.7,1.5-1.2L788.1,234.6z"/>
	<path class="st32" d="M774.8,242.4c-0.5,0.6-1.1,1.1-1.8,1.5c-1.1,0.6-2.3,1-3.5,1c-1.2,0-2.5-0.3-3.5-0.9
		c-1.2-0.7-1.6-1.5-1.4-2.3s1.3-1.8,3-2.9l1.9-1.2l-0.6-0.4c-0.6-0.4-1.4-0.6-2.2-0.7c-0.8,0-1.5,0.2-2.1,0.6
		c-0.5,0.3-1,0.7-1.4,1.1c-0.3,0.4-0.7,0.8-0.9,1.2l-2.5-0.6c0.3-0.6,0.8-1.1,1.3-1.6c0.6-0.5,1.2-1,1.8-1.4
		c1.3-0.8,2.7-1.3,4.2-1.4c1.4,0,2.9,0.3,4.1,1.1l7.7,4.5l-1.7,1l-2.1-0.6H775C775.2,241.1,775.1,241.8,774.8,242.4z M770.1,242.9
		c0.6,0,1.2-0.2,1.8-0.6c0.9-0.5,1.3-1.1,1.4-1.7s-0.4-1.1-1.3-1.7l-1-0.6l-1.4,0.9c-0.8,0.4-1.5,1-1.9,1.8c-0.2,0.5,0.1,1,0.8,1.4
		C769,242.7,769.5,242.9,770.1,242.9"/>
	<path class="st32" d="M800.7,227.5l-2.4,1.4l-7.1-4.1c-0.8-0.5-1.6-0.8-2.5-0.8c-0.8,0-1.6,0.2-2.3,0.6c-1,0.6-1.5,1.2-1.3,1.8
		c0.1,0.6,0.9,1.4,2.4,2.2l5.7,3.3l-2.4,1.4l-16.2-9.3l2.4-1.4l4.1,2.4c0.7,0.4,1.3,0.8,2,1.3l0.2-0.1c-0.2-0.5-0.2-1.1,0.1-1.5
		c0.4-0.6,0.9-1.1,1.6-1.5c2.6-1.6,5.8-1.6,8.4,0L800.7,227.5z"/>
	<g>
		<path class="st33" d="M1000.5,371.8c1.3,0.8,2,1.6,2.1,2.4s-0.6,1.7-1.9,2.5c-1.3,0.8-2.7,1.1-4.2,1.1c-1.5,0-2.9-0.5-4.2-1.2
			c-1.4-0.8-2.1-1.6-2.1-2.4s0.6-1.6,2-2.4c1.3-0.8,2.7-1.2,4.2-1.1C997.8,370.7,999.3,371.1,1000.5,371.8z"/>
		<polygon class="st33" points="953.4,361.2 973.7,391.4 966.6,395.5 947.6,365.9 926.5,378.2 920.7,374.9 948.8,358.5 		"/>
	</g>
	<path class="st33" d="M1121.6,290c4.4,2.5,6.4,5.3,6.2,8.3s-2.9,6-7.9,8.9c-4,2.4-8.4,4.1-12.9,5l-6-3.4c2.4-0.4,4.8-1,7.2-1.9
		c2.1-0.7,4.2-1.7,6.1-2.8c2.9-1.7,4.5-3.4,4.7-5.1c0.2-1.6-1-3.2-3.5-4.7c-4.9-2.8-10.4-2.4-16.6,1.2c-1,0.6-2,1.3-3,2
		c-1.1,0.9-2,1.6-2.8,2.3l-4.7,0.7L1070,288l21.2-12.3l5.9,3.4l-15.4,9l9.2,6.4c0.5-0.4,1.2-1,2-1.6c1-0.8,2.1-1.5,3.2-2.1
		c3.9-2.3,8.4-3.6,13-3.8C1113.5,286.8,1117.8,287.8,1121.6,290z"/>
	<g>
		<path class="st33" d="M1031.6,354.9c-0.4,2.6-2.8,5.1-7,7.6c-4,2.4-8.5,3.9-13.1,4.3c-4.1,0.4-8.2-0.5-11.8-2.5
			c-2.3-1.3-3.7-2.9-4.2-4.7s-0.1-3.9,1.4-6.4c-3.3,0.6-6.7,0.7-10,0.4c-2.5-0.3-5-1.1-7.2-2.3c-3-1.7-4.2-3.7-3.6-6.1
			c0.6-2.4,2.7-4.6,6.4-6.8c3.6-2.2,7.7-3.5,11.8-3.8c3.6-0.4,7.3,0.4,10.5,2.2c4.2,2.4,5,5.8,2.5,10.2c3.9-0.8,7.9-1.2,11.9-1
			c2.8,0.1,5.5,0.9,8,2.2C1030.6,350,1032.1,352.3,1031.6,354.9z M1012.4,361.9c2.5-0.2,5-1,7.1-2.3c2.4-1.4,3.7-2.8,3.9-4.2
			s-0.6-2.7-2.5-3.8c-1.9-1-3.9-1.4-6-1.3c-3,0.1-6.1,0.5-9,1.2l-1.2,0.2c-1.4,2-1.9,3.8-1.7,5.1c0.4,1.6,1.4,2.8,2.8,3.5
			C1007.8,361.6,1010.1,362.1,1012.4,361.9 M993.6,349.1c2.1-0.2,4.2-0.5,6.2-1c1.2-1.9,1.8-3.4,1.6-4.5c-0.3-1.3-1.2-2.4-2.4-3
			c-1.7-0.9-3.6-1.4-5.5-1.2c-2.1,0.1-4.1,0.8-5.9,1.9c-1.9,1.1-2.9,2.2-3.1,3.4c-0.2,1.2,0.5,2.2,2.1,3.2c1,0.6,2.1,1,3.2,1.1
			C991,349.1,992.3,349.2,993.6,349.1"/>
		<path class="st33" d="M1058.2,328.7c3.9,2.3,5.6,4.8,5,7.7c-0.6,2.8-3.5,5.7-8.6,8.7c-4.2,2.5-8.8,4.3-13.6,5.4l-5.9-3.4
			c2.5-0.5,5-1.2,7.5-2c2.2-0.7,4.3-1.7,6.3-2.8c3.1-1.8,4.9-3.5,5.3-5.1c0.4-1.6-0.7-3.1-3.1-4.5c-2.2-1.3-4.9-1.7-7.4-1.3
			c-3.4,0.7-6.7,2-9.7,3.8l-3.5,2l-5.3-3.1l3.6-2.1c6.5-3.8,7.5-7,3-9.6c-1.7-1-3.7-1.5-5.8-1.4c-2.3,0.2-4.5,0.9-6.4,2.1
			c-1.4,0.8-2.7,1.8-3.8,3c-1.1,1.3-2,2.8-2.5,4.4l-7.8-0.8c1-3.8,3.9-7.1,8.8-10c3.7-2.2,7.9-3.6,12.3-4c3.7-0.4,7.5,0.4,10.8,2.2
			c2.6,1.5,4,3.2,4.2,5.1s-0.7,3.8-2.9,5.7l0.2,0.1c3.3-1.6,6.8-2.4,10.4-2.5C1052.5,326.4,1055.5,327.2,1058.2,328.7z"/>
		<path class="st33" d="M1089.9,313.5l8.9,5.2l-6.4,3.7l-8.9-5.2l-18.5,10.8l-5.1-2.9l-8.5-26.4l6.4-3.7l26.7,15.4l5.5-3.2l5.5,3.1
			L1089.9,313.5z M1065.6,321.4l12.5-7.3l-10.3-5.9c-3.7-2.1-6.6-3.9-8.7-5.4l-0.2,0.1c0.8,1.2,1.5,2.6,2,4L1065.6,321.4"/>
	</g>
	<path class="st27" d="M914.6,1032.2l224.3-130c7.4-4.3,10.8-10,10.6-16l0,0l-0.1-32.6l-12.4,14.7c-0.8-0.5-1.6-1.1-2.5-1.6
		L675.6,602.6c-18.2-10.5-45.8-11.6-61.5-2.5L392.9,728.2C388.4,723.3,379,713,379,713l0.1,31.8l0,0c-0.3,7.2,4.8,14.8,15.1,20.8
		l458.9,264.2C871.3,1040.2,898.8,1041.4,914.6,1032.2z"/>
	<path class="st10" d="M1035.9,952.5L1023,960c-1.7,1-3.1-0.1-3.1-2.3l0,0c0-2.4,1.2-4.6,3.1-5.9l12.9-7.5c1.7-1,3.1,0.1,3.1,2.3
		l0,0C1039,949,1037.8,951.1,1035.9,952.5z"/>
	<path class="st10" d="M675.6,602.6c-18.2-10.5-45.8-11.6-61.5-2.5L392.9,728.2C388.4,723.3,379,713,379,713l0.1,31.8l0,0
		c-0.3,7.2,4.8,14.8,15.1,20.8l458.9,264.2c9.5,5.5,21.5,8.4,33.1,8.6l-0.4-314.8L675.6,602.6z"/>
	<path class="st27" d="M389.6,697.3l224.4-130c15.8-9.1,43.3-8,61.5,2.5L1134.3,834c18.2,10.5,20.2,26.4,4.5,35.5l-224.3,130
		c-15.8,9.1-43.3,8-61.5-2.5L394.1,732.8C375.9,722.3,373.9,706.5,389.6,697.3z"/>
	<path class="st31" d="M914.7,1003L1139,873c8.1-4.7,11.5-11.2,10.4-17.9c-0.4,5.4-3.8,10.5-10.6,14.4l-224.3,130
		c-15.8,9.1-43.3,8-61.5-2.5L394.1,732.8c-8.8-5.1-13.8-11.4-14.8-17.7c-0.5,7.3,4.5,15.1,15,21.1l458.9,264.2
		C871.4,1011,898.9,1012.1,914.7,1003z"/>
	<path class="st31" d="M406.9,702.4l215.5-124.9c11.7-6.8,32.2-6,45.7,1.8l452.4,260.4c13.5,7.8,15,19.6,3.3,26.4L908.3,991.1
		c-11.7,6.8-32.2,6-45.7-1.8L410.2,728.8C396.7,721,395.2,709.2,406.9,702.4z"/>
	<polygon class="st33" points="573.2,748 595.4,781 587.6,785.5 566.9,753.2 543.7,766.6 537.4,762.9 568.2,745.1 	"/>
	<g>
		<path class="st33" d="M658.7,741.1c-0.5,2.8-3,5.6-7.6,8.3c-4.4,2.7-9.3,4.3-14.3,4.7c-4.5,0.4-8.9-0.6-12.8-2.8
			c-2.5-1.4-4-3.1-4.6-5.1s-0.1-4.3,1.5-7c-3.6,0.6-7.3,0.8-11,0.4c-2.8-0.3-5.4-1.2-7.9-2.5c-3.2-1.9-4.6-4.1-4-6.7
			c0.6-2.6,3-5.1,7-7.4c3.9-2.4,8.4-3.8,12.9-4.1c4-0.4,8,0.4,11.5,2.4c4.6,2.7,5.5,6.4,2.7,11.1c4.3-0.9,8.6-1.3,13-1.1
			c3,0.2,6,1,8.7,2.5C657.5,735.8,659.1,738.2,658.7,741.1z M637.7,748.8c2.8-0.2,5.4-1.1,7.8-2.5c2.6-1.5,4-3,4.3-4.6
			s-0.7-2.9-2.8-4.1c-2-1-4.3-1.5-6.5-1.4c-3.3,0.1-6.6,0.5-9.9,1.3l-1.3,0.3c-1.5,2.2-2.1,4.1-1.9,5.6s1.3,2.8,3.1,3.8
			C632.7,748.4,635.2,749,637.7,748.8 M617.1,734.8c2.3-0.2,4.6-0.6,6.8-1.1c1.3-2,1.9-3.7,1.7-5c-0.3-1.5-1.3-2.7-2.7-3.3
			c-1.8-1-3.9-1.5-6-1.3c-2.3,0.1-4.5,0.8-6.5,2c-2,1.2-3.2,2.4-3.4,3.7s0.5,2.5,2.3,3.5c1.1,0.6,2.3,1.1,3.5,1.3
			C614.3,734.7,615.7,734.8,617.1,734.8"/>
		<path class="st33" d="M687.8,712.4c4.3,2.5,6.1,5.3,5.4,8.4c-0.7,3.1-3.8,6.3-9.4,9.5c-4.6,2.7-9.6,4.7-14.9,5.8l-6.4-3.7
			c2.8-0.5,5.5-1.3,8.2-2.2c2.4-0.8,4.7-1.9,6.8-3.1c3.4-2,5.4-3.9,5.8-5.6s-0.7-3.4-3.4-4.9c-2.5-1.4-5.3-1.9-8.1-1.4
			c-3.8,0.7-7.3,2.2-10.6,4.2l-3.9,2.2l-5.8-3.4l3.9-2.3c7.1-4.1,8.2-7.6,3.2-10.5c-1.9-1.1-4.1-1.6-6.3-1.5c-2.5,0.2-4.9,1-7,2.3
			c-1.5,0.9-2.9,2-4.2,3.2c-1.2,1.4-2.1,3.1-2.7,4.8l-8.5-0.9c1.1-4.1,4.3-7.7,9.7-10.9c4.1-2.5,8.7-4,13.4-4.4
			c4.1-0.4,8.2,0.4,11.8,2.4c2.8,1.6,4.4,3.5,4.6,5.5c0.2,2-0.8,4.1-3.1,6.2l0.2,0.1c3.6-1.7,7.4-2.6,11.4-2.7
			C681.4,709.8,684.8,710.7,687.8,712.4z"/>
		<path class="st33" d="M722.4,695.9l9.8,5.6l-7,4l-9.7-5.6l-20.3,11.8l-5.5-3.2l-9.2-28.9l7-4l29.1,16.8l6-3.5l6,3.4L722.4,695.9z
			 M695.8,704.4l13.7-7.9l-11.2-6.5c-4-2.3-7.2-4.2-9.5-5.8l-0.2,0.1c0.9,1.4,1.7,2.8,2.2,4.4L695.8,704.4"/>
		<path class="st33" d="M757,670.2c4.8,2.8,7,5.8,6.7,9.1c-0.3,3.3-3.2,6.5-8.7,9.7c-4.3,2.6-9.1,4.5-14.1,5.4l-6.5-3.8
			c2.7-0.4,5.3-1.1,7.8-2c2.3-0.8,4.6-1.8,6.7-3c3.2-1.9,4.9-3.7,5.2-5.5s-1-3.5-3.8-5.1c-5.3-3.1-11.4-2.7-18.2,1.3
			c-1.1,0.7-2.2,1.4-3.2,2.2c-1.2,0.9-2.2,1.8-3,2.5l-5.1,0.8L700.7,668l23.1-13.4l6.4,3.7l-16.8,9.7l10.1,7
			c0.6-0.5,1.3-1.1,2.2-1.8c1.1-0.9,2.3-1.6,3.5-2.3c4.3-2.6,9.2-4,14.2-4.1C748.1,666.6,752.9,667.8,757,670.2z"/>
	</g>
	<path class="st33" d="M624.7,759.6c1.5,0.8,2.2,1.7,2.3,2.7s-0.6,1.8-2.1,2.7c-1.4,0.8-3,1.3-4.6,1.2c-1.6,0-3.2-0.5-4.6-1.3
		c-1.5-0.8-2.2-1.7-2.3-2.7s0.7-1.8,2.2-2.6c1.4-0.8,3-1.3,4.6-1.2C621.7,758.3,623.3,758.8,624.7,759.6z"/>
	<polygon class="st33" points="707,767.5 736.2,750.5 741.7,753.7 712.4,770.7 	"/>
	<polygon class="st33" points="748.5,757.6 754,760.7 724.7,777.7 719.2,774.6 	"/>
	<g>
		<path class="st33" d="M908.4,856c3,1.7,4.5,3.5,4.7,5.5s-1.3,3.8-4.3,5.5c-2.9,1.7-6.1,2.6-9.5,2.5c-3.3-0.1-6.6-1-9.5-2.7
			c-3.1-1.8-4.6-3.6-4.7-5.4s1.4-3.7,4.4-5.4c2.9-1.7,6.1-2.6,9.5-2.6C902.3,853.4,905.5,854.3,908.4,856z"/>
		<polygon class="st33" points="802.7,832.2 848.2,900.1 832.4,909.3 789.7,842.9 742.3,870.5 729.3,863 792.4,826.3 		"/>
		<path class="st33" d="M978.1,818.1c-1,5.8-6.2,11.5-15.6,17c-9.9,5.8-19.7,9-29.4,9.7c-9.2,0.8-18.3-1.2-26.3-5.7
			c-5.1-3-8.3-6.4-9.5-10.5c-1.2-4-0.2-8.8,3.1-14.4c-8.9,1.3-16.4,1.6-22.5,0.8c-5.7-0.6-11.1-2.4-16.1-5.2
			c-6.7-3.8-9.4-8.4-8.1-13.7c1.2-5.3,6.1-10.4,14.4-15.2c8.1-4.8,17.2-7.7,26.5-8.5c9-0.6,16.9,1,23.6,4.9
			c9.4,5.4,11.3,13,5.6,22.8c10.8-2.1,19.6-2.8,26.6-2.3c6.3,0.3,12.4,2.1,17.8,5.1C975.8,807.2,979.1,812.3,978.1,818.1z
			 M935,833.9c5.7-0.4,11.1-2.2,16-5.1c5.4-3.1,8.3-6.3,8.8-9.4c0.5-3.2-1.4-6-5.8-8.5c-3.4-2-7.9-3-13.4-3
			c-6.8,0.1-13.6,1.1-20.3,2.8l-2.6,0.6c-3.1,4.6-4.3,8.4-3.8,11.5c0.5,3.1,2.6,5.7,6.4,7.9C924.7,833.2,929.8,834.3,935,833.9
			 M892.8,805.2c4.7-0.4,9.3-1.2,13.9-2.2c2.8-4.2,4-7.6,3.6-10.2s-2.2-4.8-5.5-6.7c-3.7-2.1-8-3-12.3-2.7
			c-4.7,0.3-9.3,1.7-13.3,4.1c-4.2,2.4-6.5,5-6.9,7.6c-0.5,2.7,1.1,5,4.6,7.1c2.2,1.3,4.7,2.2,7.2,2.6
			C886.9,805.2,889.9,805.4,892.8,805.2"/>
	</g>
	<ellipse class="st10" cx="542.9" cy="633.2" rx="10.5" ry="5.4"/>
</g>
</svg>
